# xmcd
#
# Track frame offsets:
#	150
#	48800
#	93352
#	137237
#	186207
#	229427
#	287480
#	307992
#	323785
#
# Disc length: 4454 seconds
#
# Revision: 1
# Processed by: cddbd v1.5.1PL0 Copyright (c) Steve Scherf et al.
# Submitted via: CDex 1.50Beta5
#
DISCID=78116409
DTITLE=桑島法子 - メモリサイト75 Vol.1
DYEAR=1900
DGENRE=
TTITLE0=第1話
TTITLE1=第1話
TTITLE2=第2話
TTITLE3=第3話
TTITLE4=第4話
TTITLE5=第5話
TTITLE6=第7話
TTITLE7=コント
TTITLE8=対談(島田敏)
EXTD=
EXTT0=
EXTT1=
EXTT2=
EXTT3=
EXTT4=
EXTT5=
EXTT6=
EXTT7=
EXTT8=
PLAYORDER=
